REM DIRINDEX 1\2\4,1\2\5,1\2\6,1\3\7,1\3\8
REM DIRNAME cjc128,folder01,folder02,folder03,folder04,folder05,folder06,folder07
TITLE ""
FILE "018_Lesson 15_Output_Stage.mp3" MP3
  TRACK 01 AUDIO
    TITLE "0:"
    INDEX 01 00:00:00
  TRACK 02 AUDIO
    TITLE "8:cjc128_3075"
    INDEX 01 00:00:11
  TRACK 03 AUDIO
    TITLE "0:"
    INDEX 01 00:03:21
  TRACK 04 AUDIO
    TITLE "8:cjc128_3076"
    INDEX 01 00:03:35
  TRACK 05 AUDIO
    TITLE "0:"
    INDEX 01 00:05:20
  TRACK 06 AUDIO
    TITLE "7:cjc128_3077"
    INDEX 01 00:05:63
  TRACK 07 AUDIO
    TITLE "0:"
    INDEX 01 00:07:72
  TRACK 08 AUDIO
    TITLE "8:cjc128_3078"
    INDEX 01 00:10:49
  TRACK 09 AUDIO
    TITLE "0:"
    INDEX 01 00:12:34
  TRACK 10 AUDIO
    TITLE "7:cjc128_3079"
    INDEX 01 00:13:12
  TRACK 11 AUDIO
    TITLE "0:"
    INDEX 01 00:14:19
  TRACK 12 AUDIO
    TITLE "8:cjc128_3080"
    INDEX 01 00:15:66
  TRACK 13 AUDIO
    TITLE "0:"
    INDEX 01 00:17:37
  TRACK 14 AUDIO
    TITLE "7:cjc128_3081"
    INDEX 01 00:18:13
  TRACK 15 AUDIO
    TITLE "0:"
    INDEX 01 00:20:49
  TRACK 16 AUDIO
    TITLE "8:cjc128_3082"
    INDEX 01 00:23:59
  TRACK 17 AUDIO
    TITLE "0:"
    INDEX 01 00:25:48
  TRACK 18 AUDIO
    TITLE "7:cjc128_3083"
    INDEX 01 00:26:30
  TRACK 19 AUDIO
    TITLE "0:"
    INDEX 01 00:28:25
  TRACK 20 AUDIO
    TITLE "8:cjc128_3084"
    INDEX 01 00:30:54
  TRACK 21 AUDIO
    TITLE "0:"
    INDEX 01 00:32:50
  TRACK 22 AUDIO
    TITLE "7:cjc128_3085"
    INDEX 01 00:33:28
  TRACK 23 AUDIO
    TITLE "0:"
    INDEX 01 00:36:07
  TRACK 24 AUDIO
    TITLE "8:cjc128_3086"
    INDEX 01 00:39:39
  TRACK 25 AUDIO
    TITLE "0:"
    INDEX 01 00:41:36
  TRACK 26 AUDIO
    TITLE "7:cjc128_3087"
    INDEX 01 00:42:19
  TRACK 27 AUDIO
    TITLE "0:"
    INDEX 01 00:43:50
  TRACK 28 AUDIO
    TITLE "8:cjc128_3088"
    INDEX 01 00:45:65
  TRACK 29 AUDIO
    TITLE "0:"
    INDEX 01 00:47:56
  TRACK 30 AUDIO
    TITLE "7:cjc128_3089"
    INDEX 01 00:48:44
  TRACK 31 AUDIO
    TITLE "0:"
    INDEX 01 00:51:11
  TRACK 32 AUDIO
    TITLE "8:cjc128_3090"
    INDEX 01 00:54:27
  TRACK 33 AUDIO
    TITLE "0:"
    INDEX 01 00:56:39
  TRACK 34 AUDIO
    TITLE "7:cjc128_3091"
    INDEX 01 00:57:17
  TRACK 35 AUDIO
    TITLE "0:"
    INDEX 01 00:59:51
  TRACK 36 AUDIO
    TITLE "8:cjc128_3092"
    INDEX 01 01:02:40
  TRACK 37 AUDIO
    TITLE "0:"
    INDEX 01 01:04:39
  TRACK 38 AUDIO
    TITLE "7:cjc128_3093"
    INDEX 01 01:05:22
  TRACK 39 AUDIO
    TITLE "0:"
    INDEX 01 01:06:71
  TRACK 40 AUDIO
    TITLE "8:cjc128_3094"
    INDEX 01 01:09:05
  TRACK 41 AUDIO
    TITLE "0:"
    INDEX 01 01:11:03
  TRACK 42 AUDIO
    TITLE "7:cjc128_3095"
    INDEX 01 01:11:43
  TRACK 43 AUDIO
    TITLE "0:"
    INDEX 01 01:13:53
  TRACK 44 AUDIO
    TITLE "8:cjc128_3096"
    INDEX 01 01:15:72
  TRACK 45 AUDIO
    TITLE "0:"
    INDEX 01 01:17:63
  TRACK 46 AUDIO
    TITLE "7:cjc128_3097"
    INDEX 01 01:18:41
  TRACK 47 AUDIO
    TITLE "0:"
    INDEX 01 01:21:63
  TRACK 48 AUDIO
    TITLE "8:cjc128_3098"
    INDEX 01 01:25:37
  TRACK 49 AUDIO
    TITLE "0:"
    INDEX 01 01:27:36
  TRACK 50 AUDIO
    TITLE "7:cjc128_3099"
    INDEX 01 01:28:16
  TRACK 51 AUDIO
    TITLE "0:"
    INDEX 01 01:31:57
  TRACK 52 AUDIO
    TITLE "8:cjc128_3100"
    INDEX 01 01:35:71
  TRACK 53 AUDIO
    TITLE "0:"
    INDEX 01 01:37:38
  TRACK 54 AUDIO
    TITLE "7:cjc128_3101"
    INDEX 01 01:38:26
  TRACK 55 AUDIO
    TITLE "0:"
    INDEX 01 01:40:27
  TRACK 56 AUDIO
    TITLE "8:cjc128_3102"
    INDEX 01 01:42:67
  TRACK 57 AUDIO
    TITLE "0:"
    INDEX 01 01:44:60
  TRACK 58 AUDIO
    TITLE "7:cjc128_3103"
    INDEX 01 01:45:36
  TRACK 59 AUDIO
    TITLE "0:"
    INDEX 01 01:47:52
  TRACK 60 AUDIO
    TITLE "8:cjc128_3104"
    INDEX 01 01:50:11
  TRACK 61 AUDIO
    TITLE "0:"
    INDEX 01 01:52:12
  TRACK 62 AUDIO
    TITLE "7:cjc128_3105"
    INDEX 01 01:52:67
  TRACK 63 AUDIO
    TITLE "0:"
    INDEX 01 01:55:69
  TRACK 64 AUDIO
    TITLE "8:cjc128_3106"
    INDEX 01 01:59:32
  TRACK 65 AUDIO
    TITLE "0:"
    INDEX 01 02:01:27
  TRACK 66 AUDIO
    TITLE "7:cjc128_3107"
    INDEX 01 02:02:13
  TRACK 67 AUDIO
    TITLE "0:"
    INDEX 01 02:03:30
  TRACK 68 AUDIO
    TITLE "8:cjc128_3108"
    INDEX 01 02:05:09
  TRACK 69 AUDIO
    TITLE "0:"
    INDEX 01 02:07:00
  TRACK 70 AUDIO
    TITLE "7:cjc128_3109"
    INDEX 01 02:07:63
  TRACK 71 AUDIO
    TITLE "0:"
    INDEX 01 02:09:48
  TRACK 72 AUDIO
    TITLE "8:cjc128_3110"
    INDEX 01 02:11:59
  TRACK 73 AUDIO
    TITLE "0:"
    INDEX 01 02:13:48
  TRACK 74 AUDIO
    TITLE "7:cjc128_3111"
    INDEX 01 02:14:31
  TRACK 75 AUDIO
    TITLE "0:"
    INDEX 01 02:15:56
  TRACK 76 AUDIO
    TITLE "8:cjc128_3112"
    INDEX 01 02:17:38
  TRACK 77 AUDIO
    TITLE "0:"
    INDEX 01 02:19:33
  TRACK 78 AUDIO
    TITLE "7:cjc128_3113"
    INDEX 01 02:20:18
  TRACK 79 AUDIO
    TITLE "0:"
    INDEX 01 02:22:51
  TRACK 80 AUDIO
    TITLE "8:cjc128_3114"
    INDEX 01 02:25:51
  TRACK 81 AUDIO
    TITLE "0:"
    INDEX 01 02:27:42
  TRACK 82 AUDIO
    TITLE "7:cjc128_3115"
    INDEX 01 02:28:20
  TRACK 83 AUDIO
    TITLE "0:"
    INDEX 01 02:29:45
  TRACK 84 AUDIO
    TITLE "8:cjc128_3116"
    INDEX 01 02:31:36
  TRACK 85 AUDIO
    TITLE "0:"
    INDEX 01 02:33:17
  TRACK 86 AUDIO
    TITLE "7:cjc128_3117"
    INDEX 01 02:33:74
  TRACK 87 AUDIO
    TITLE "0:"
    INDEX 01 02:36:00
  TRACK 88 AUDIO
    TITLE "8:cjc128_3118"
    INDEX 01 02:38:42
  TRACK 89 AUDIO
    TITLE "0:"
    INDEX 01 02:40:29
  TRACK 90 AUDIO
    TITLE "7:cjc128_3119"
    INDEX 01 02:41:09
  TRACK 91 AUDIO
    TITLE "0:"
    INDEX 01 02:43:68
  TRACK 92 AUDIO
    TITLE "8:cjc128_3120"
    INDEX 01 02:47:00
  TRACK 93 AUDIO
    TITLE "0:"
    INDEX 01 02:48:48
  TRACK 94 AUDIO
    TITLE "7:cjc128_3121"
    INDEX 01 02:49:36
  TRACK 95 AUDIO
    TITLE "0:"
    INDEX 01 02:51:21
  TRACK 96 AUDIO
    TITLE "8:cjc128_3122"
    INDEX 01 02:53:49
  TRACK 97 AUDIO
    TITLE "0:"
    INDEX 01 02:55:36
  TRACK 98 AUDIO
    TITLE "7:cjc128_3123"
    INDEX 01 02:56:20
  TRACK 99 AUDIO
    TITLE "0:"
    INDEX 01 02:57:69
  TRACK 100 AUDIO
    TITLE "8:cjc128_3124"
    INDEX 01 02:59:73
  TRACK 101 AUDIO
    TITLE "0:"
    INDEX 01 03:01:72
  TRACK 102 AUDIO
    TITLE "7:cjc128_3125"
    INDEX 01 03:02:54
  TRACK 103 AUDIO
    TITLE "0:"
    INDEX 01 03:04:57
  TRACK 104 AUDIO
    TITLE "8:cjc128_3126"
    INDEX 01 03:07:22
  TRACK 105 AUDIO
    TITLE "0:"
    INDEX 01 03:09:15
  TRACK 106 AUDIO
    TITLE "7:cjc128_3127"
    INDEX 01 03:10:01
  TRACK 107 AUDIO
    TITLE "0:"
    INDEX 01 03:12:68
  TRACK 108 AUDIO
    TITLE "8:cjc128_3128"
    INDEX 01 03:16:23
  TRACK 109 AUDIO
    TITLE "0:"
    INDEX 01 03:18:18
  TRACK 110 AUDIO
    TITLE "7:cjc128_3129"
    INDEX 01 03:19:00
  TRACK 111 AUDIO
    TITLE "0:"
    INDEX 01 03:21:10
  TRACK 112 AUDIO
    TITLE "8:cjc128_3130"
    INDEX 01 03:23:52
  TRACK 113 AUDIO
    TITLE "0:"
    INDEX 01 03:25:53
  TRACK 114 AUDIO
    TITLE "7:cjc128_3131"
    INDEX 01 03:26:45
  TRACK 115 AUDIO
    TITLE "0:"
    INDEX 01 03:28:24
  TRACK 116 AUDIO
    TITLE "8:cjc128_3132"
    INDEX 01 03:30:41
  TRACK 117 AUDIO
    TITLE "0:"
    INDEX 01 03:32:43
  TRACK 118 AUDIO
    TITLE "7:cjc128_3133"
    INDEX 01 03:33:25
  TRACK 119 AUDIO
    TITLE "0:"
    INDEX 01 03:35:26
  TRACK 120 AUDIO
    TITLE "8:cjc128_3134"
    INDEX 01 03:38:01
  TRACK 121 AUDIO
    TITLE "0:"
    INDEX 01 03:40:06
  TRACK 122 AUDIO
    TITLE "7:cjc128_3135"
    INDEX 01 03:40:60
  TRACK 123 AUDIO
    TITLE "0:"
    INDEX 01 03:42:44
  TRACK 124 AUDIO
    TITLE "8:cjc128_3136"
    INDEX 01 03:44:68
  TRACK 125 AUDIO
    TITLE "0:"
    INDEX 01 03:46:55
  TRACK 126 AUDIO
    TITLE "7:cjc128_3137"
    INDEX 01 03:47:33
  TRACK 127 AUDIO
    TITLE "0:"
    INDEX 01 03:49:38
  TRACK 128 AUDIO
    TITLE "8:cjc128_3138"
    INDEX 01 03:51:74
  TRACK 129 AUDIO
    TITLE "0:"
    INDEX 01 03:53:69
  TRACK 130 AUDIO
    TITLE "7:cjc128_3139"
    INDEX 01 03:54:47
  TRACK 131 AUDIO
    TITLE "0:"
    INDEX 01 03:57:28
  TRACK 132 AUDIO
    TITLE "8:cjc128_3140"
    INDEX 01 04:00:51
  TRACK 133 AUDIO
    TITLE "0:"
    INDEX 01 04:02:21
  TRACK 134 AUDIO
    TITLE "7:cjc128_3141"
    INDEX 01 04:03:07
  TRACK 135 AUDIO
    TITLE "0:"
    INDEX 01 04:05:09
  TRACK 136 AUDIO
    TITLE "8:cjc128_3142"
    INDEX 01 04:07:36
  TRACK 137 AUDIO
    TITLE "0:"
    INDEX 01 04:09:33
  TRACK 138 AUDIO
    TITLE "7:cjc128_3143"
    INDEX 01 04:10:09
  TRACK 139 AUDIO
    TITLE "0:"
    INDEX 01 04:13:05
